<?xml version="1.0" encoding="UTF-8"?>
<svg width="52px" height="52px" viewBox="0 0 52 52" version="1.1" xmlns="http://www.w3.org/2000/svg" xmlns:xlink="http://www.w3.org/1999/xlink">
    <!-- Generator: Sketch 61.2 (89653) - https://sketch.com -->
    <title>whatsapp-brands</title>
    <desc>Created with Sketch.</desc>
    <g id="Symbols" stroke="none" stroke-width="1" fill="none" fill-rule="evenodd">
        <g id="footer_mobile_desplegado" transform="translate(-561.000000, -780.000000)" fill="#fff" fill-rule="nonzero">
            <g id="Group-15" transform="translate(136.000000, 777.000000)">
                <g id="whatsapp-brands" transform="translate(425.000000, 3.000000)">
                    <path d="M43.5758781,7.44759691 C38.7824171,2.64269568 32.3987626,-3.94943337e-15 25.6146997,-3.94943337e-15 C11.6118446,-3.94943337e-15 0.217364579,11.3944801 0.217364579,25.3973351 C0.217364579,29.8704693 1.38426916,34.2406414 3.60367592,38.0960026 L4.06791637e-13,51.2522798 L13.4651637,47.7172453 C17.1718018,49.742168 21.3474897,50.8061104 25.6032594,50.8061104 L25.6146997,50.8061104 C39.6061144,50.8061104 51.2522798,39.4116303 51.2522798,25.4087753 C51.2522798,18.6247124 48.369339,12.2524981 43.5758781,7.44759691 Z M25.6146997,46.5274602 C21.8165396,46.5274602 18.0984613,45.5092788 14.8608731,43.5873183 L14.0943769,43.1297087 L6.10908871,45.2232728 L8.23697354,37.4324686 L7.73360293,36.6316518 C5.61715834,33.2682209 4.50745496,29.3899792 4.50745496,25.3973351 C4.50745496,13.76261 13.9799745,4.29009038 25.6261399,4.29009038 C31.2661787,4.29009038 36.5630103,6.48661666 40.5442142,10.4792608 C44.5254181,14.4719049 46.9736296,19.7687365 46.9622293,25.4087753 C46.9622293,37.0549407 37.2494248,46.5274602 25.6146997,46.5274602 Z M37.1922236,30.7170471 C36.5630103,30.3967204 33.4398245,28.8637281 32.8563722,28.6578038 C32.2729199,28.4404392 31.849631,28.337477 31.4263421,28.9781305 C31.0030532,29.618784 29.7903876,31.0373739 29.4128597,31.4721031 C29.046772,31.895392 28.669244,31.9525932 28.0400307,31.6322664 C24.3105122,29.7675071 21.8623006,28.3031563 19.4026488,24.0817074 C18.750555,22.9605637 20.0547425,23.0406454 21.2674081,20.6153143 C21.4733324,20.1920254 21.3703702,19.8259377 21.2102069,19.5056109 C21.0500435,19.1852842 19.7801767,16.0620984 19.2539256,14.7922316 C18.7391148,13.5566856 18.2128637,13.7282892 17.8238955,13.7054087 C17.4578078,13.6825283 17.0345189,13.6825283 16.61123,13.6825283 C16.187941,13.6825283 15.5015266,13.8426916 14.9180743,14.4719049 C14.334622,15.1125584 12.6986675,16.6455507 12.6986675,19.7687365 C12.6986675,22.8919223 14.9752755,25.9121459 15.284162,26.3354348 C15.6044888,26.7587238 19.7572962,33.1652587 26.1295105,35.9223568 C30.1564753,37.6612734 31.7352286,37.8099966 33.748711,37.5125503 C34.9728168,37.3295065 37.5011101,35.979558 38.0273612,34.4923267 C38.5536122,33.0050954 38.5536122,31.7352286 38.3934489,31.4721031 C38.2447257,31.186097 37.8214368,31.0259337 37.1922236,30.7170471 Z" id="Shape"></path>
                </g>
            </g>
        </g>
    </g>
</svg>